<svg width="81" height="63" viewBox="0 0 81 63" fill="none" xmlns="http://www.w3.org/2000/svg">
<path d="M7.30247 43.5599V48.1735H2.49077V43.5599H0V54.4004H2.49077V49.5321H7.30247V54.4004H9.79322V43.5599H7.30247Z" fill="white"/>
<path d="M13.4162 49.1075C13.4162 45.6261 15.7937 43.2769 19.0204 43.2769C22.247 43.2769 24.4548 45.1449 24.4548 48.8528C24.4548 52.5606 22.0772 54.6834 18.8505 54.6834C15.6239 54.6834 13.4162 52.8153 13.4162 49.1075ZM21.8508 49.0226C21.8508 46.6167 20.8601 44.6354 18.9921 44.6354C17.124 44.6354 16.0484 46.5884 16.0484 48.966C16.0484 51.3435 17.0674 53.3531 18.9072 53.3531C20.7469 53.3531 21.8508 51.4001 21.8508 49.0226Z" fill="white"/>
<path d="M34.5876 52.8436V54.4287H28.106V43.5882H30.5967V52.9852H31.4176C32.8045 52.9852 33.5121 52.9569 34.5876 52.8436Z" fill="white"/>
<path d="M47.5509 48.8528C47.5509 51.6832 45.7961 54.5985 40.8994 54.5985C36.0028 54.5985 38.9465 54.5702 37.6162 54.3721V43.6165C38.8332 43.4467 39.5692 43.3901 40.8711 43.3901C45.5413 43.3901 47.5226 45.5412 47.5226 48.8528M44.9752 48.9094C44.9752 46.3054 43.7582 44.6354 41.0976 44.6354C38.437 44.6354 40.4749 44.6638 40.1352 44.7204V53.2399C40.4749 53.2965 40.7862 53.2965 41.1259 53.2965C43.8148 53.2965 45.0035 51.2303 45.0035 48.8811" fill="white"/>
<path d="M53.891 43.5599H51.4003V54.4004H53.891V43.5599Z" fill="white"/>
<path d="M67.0807 43.5599V54.4004H65.7505L59.7783 47.6074V54.4004H58.1083V43.5599H59.4386L65.3825 50.6642V43.5599H67.0807Z" fill="white"/>
<path d="M80.2988 48.5697V53.5796C79.2515 54.3155 77.7797 54.6834 76.1664 54.6834C72.685 54.6834 70.6754 52.5323 70.6754 49.1358C70.6754 45.7393 73.0812 43.3052 76.7891 43.3052C80.4969 43.3052 79.3081 43.6448 80.2422 44.2958L79.5063 45.5412C78.6854 44.9751 77.9495 44.7204 76.9872 44.7204C74.5813 44.7204 73.3076 46.6733 73.3076 49.0509C73.3076 51.4284 74.3266 53.3814 76.7041 53.3814C79.0817 53.3814 77.7797 53.2965 78.2892 53.0418V49.9566H76.0815V48.6263H80.3271L80.2988 48.5697Z" fill="white"/>
<path d="M75.9974 0L62.9209 15.5107L55.1938 8.32141L63.2039 22.1904L75.9974 0Z" fill="white"/>
<path d="M14.4917 29.5778C14.4917 33.3705 11.9443 37.2199 4.7834 37.2199C-2.37754 37.2199 1.92468 37.1633 0 36.9086V22.5867C1.78316 22.3603 2.83042 22.2753 4.7551 22.2753C11.5764 22.2753 14.4917 25.1341 14.4917 29.5495M10.699 29.6627C10.699 26.2096 8.8875 23.9736 5.00983 23.9736C1.13217 23.9736 4.1041 24.0302 3.59463 24.0868V35.4368C4.0758 35.4934 4.55697 35.5217 5.03814 35.5217C8.97241 35.5217 10.699 32.7762 10.699 29.6627Z" fill="white"/>
<path d="M19.6997 31.0496V22.5584H23.3226V30.2005C23.3226 33.229 24.1717 35.2386 26.7474 35.2386C29.3231 35.2386 30.3703 33.8234 30.3703 30.7666V22.5584H32.9177V30.6534C32.9177 34.6159 30.9647 37.3614 26.2662 37.3614C21.5677 37.3614 19.728 34.9273 19.728 31.0496" fill="white"/>
<path d="M51.2588 32.8611C51.2588 35.6915 48.4567 37.2199 44.1261 37.2199C39.7956 37.2199 41.1542 37.1633 39.1729 36.9086V22.5867C40.4183 22.3886 42.0316 22.2753 43.5317 22.2753C47.4943 22.2753 50.353 23.2094 50.353 26.0115C50.353 28.8136 49.4473 28.6721 47.6924 29.2382C50.0134 29.7193 51.2304 31.0779 51.2304 32.8045M42.7675 23.9453V28.6721H43.7865C45.7678 28.6721 46.9282 27.8513 46.9282 26.153C46.9282 24.4548 45.8244 23.8604 43.8714 23.8604C41.9184 23.8604 43.1355 23.8604 42.7675 23.917M47.6358 32.8045C47.6358 31.1345 46.2489 30.2571 43.7865 30.2571H42.7675V35.5217C43.1921 35.5783 43.5317 35.5783 43.7865 35.5783C46.3338 35.5783 47.6358 34.531 47.6358 32.7762" fill="white"/>
<path d="M80.2988 22.5301H76.6759V36.9652H80.2988V22.5301Z" fill="white"/>
<path d="M57.4291 36.9652L62.4955 27.6248L67.5902 36.9652H71.7509L63.2031 22.1904L54.6552 36.9652H57.4291Z" fill="white"/>
</svg>
