<svg width="100" height="36" viewBox="0 0 100 36" fill="none" xmlns="http://www.w3.org/2000/svg">
<path d="M49.9444 9.3764C51.743 8.71828 52.9916 7.4538 52.9916 5.43506C52.9916 2.32193 50.1302 0.990894 46.5033 0.990894H42.371V20.3722H47.7742C51.8619 20.3722 55.407 18.7232 55.407 14.9889C55.407 12.0311 53.1922 10.0049 49.9444 9.3764ZM47.5141 19.2852H45.2249V2.0779H46.7262C49.4167 2.0779 50.316 3.37936 50.316 5.33154C50.316 5.6569 50.5315 8.85138 47.8931 9.43555C48.562 9.60563 49.8329 10.0197 50.8362 10.9441C51.8916 11.8166 52.3896 13.1624 52.3896 14.7079C52.3896 17.4217 50.8883 19.2926 47.5141 19.2926" fill="white"/>
<path d="M1.3601 19.7215C2.69046 20.4018 4.37756 20.705 5.83427 20.705C8.35378 20.705 12.7908 19.8028 12.7908 15.4104C12.7908 12.3269 10.5537 10.5965 6.86735 8.11192C5.16538 6.9066 2.8391 5.68648 2.8391 3.70473C2.8391 2.05572 4.37013 1.07224 6.4883 1.07224C8.60647 1.07224 10.2862 2.07791 10.6801 2.34411L9.63212 0.525037C8.91863 0.125728 7.35044 1.90735e-05 6.51804 1.90735e-05C3.70124 1.90735e-05 0.4162 1.18316 0.4162 4.51813C0.4162 7.15801 2.50466 8.64433 5.96062 11.1141C7.56597 12.2529 10.0929 14.0498 10.0929 16.2608C10.0929 18.3387 8.46527 19.6253 5.84171 19.6253C2.77221 19.6253 0.535117 17.8063 0 17.333L1.3601 19.7215Z" fill="white"/>
<path d="M26.7188 20.7049C21.5088 20.7049 17.4657 16.5713 17.4657 10.6778C17.4657 4.78431 21.5088 0.650719 26.7188 0.650719C31.9287 0.650719 35.9644 4.93221 35.9644 10.6778C35.9644 16.4234 31.9287 20.7049 26.7188 20.7049ZM33.103 10.6778C33.103 5.42764 30.5463 1.73773 26.7188 1.73773C22.8912 1.73773 20.3345 5.43504 20.3345 10.6778C20.3345 15.9206 22.8912 19.6179 26.7188 19.6179C30.5463 19.6179 33.103 15.9502 33.103 10.6778Z" fill="white"/>
<path d="M94.6562 14.6783H87.1348L84.7937 20.3648H83.6788L91.8394 0.554573L99.9999 20.3648H96.9973L94.6562 14.6783ZM87.5807 13.5987H94.2102L90.8955 5.53115L87.5807 13.5987Z" fill="white"/>
<path d="M75.3178 0.998241V8.95486H64.8681V0.998241H62.0142V20.3722H64.8681V10.0345H75.3178V20.3722H78.1792V0.998241H75.3178Z" fill="white"/>
<path d="M30.9774 35.997H29.818V30.1035H32.6571C34.0023 30.1035 34.6786 30.7469 34.6786 31.7747V32.0927C34.6786 32.8765 34.1881 33.4607 33.3929 33.6751L34.909 35.9897H33.6307L32.1963 33.7713H30.9774V35.9897V35.997ZM30.9774 32.8987H32.397C33.155 32.8987 33.5192 32.5807 33.5192 32.0779V31.8413C33.5192 31.3089 33.2071 31.0279 32.4416 31.0279H30.9774V32.9061V32.8987Z" fill="white"/>
<path d="M42.0291 30.1109V31.0648H38.6921V32.5586H41.2933V33.4607H38.6921V35.0431H42.0291V36.0044H37.5624V30.1109H42.0291Z" fill="white"/>
<path d="M48.0566 34.7696H45.4331L44.9723 35.9971H43.8054L46.1243 30.0592H47.4026L49.7215 35.9971H48.51L48.0492 34.7696H48.0566ZM45.7601 33.9044H47.7222L46.7486 31.3237H46.7337L45.7675 33.9044H45.7601Z" fill="white"/>
<path d="M53.3556 30.1109V34.9988H56.3136V36.0044H52.2036V30.1109H53.3556Z" fill="white"/>
<path d="M62.6905 30.1109V31.1018H60.6838V36.0044H59.5244V31.1018H57.5251V30.1109H62.6905Z" fill="white"/>
<path d="M65.8194 30.1109L67.3876 32.7656L68.9335 30.1109H70.1821L67.9302 33.7491V36.0044H66.7708V33.7491L64.5188 30.1109H65.8194Z" fill="white"/>
</svg>
